{
  "accessors": [
    {
      "bufferView": 2,
      "componentType": 5126,
      "count": 5159,
      "max": [
        0.5468444228172302,
        0.9886848330497742,
        1.808845043182373
      ],
      "min": [
        -0.45790985226631165,
        -0.23101982474327087,
        0.00922857504338026
      ],
      "type": "VEC3"
    },
    {
      "bufferView": 2,
      "byteOffset": 61908,
      "componentType": 5126,
      "count": 5159,
      "max": [
        0.9999645352363586,
        0.999690055847168,
        0.999103844165802
      ],
      "min": [
        -0.9998796582221985,
        -0.996493935585022,
        -0.9999999403953552
      ],
      "type": "VEC3"
    },
    {
      "bufferView": 3,
      "componentType": 5126,
      "count": 5159,
      "max": [
        0.9994835257530212,
        0.9733505249023438,
        0.9921226501464844,
        1.0
      ],
      "min": [
        -0.9998878836631775,
        -0.9999834895133972,
        -0.9988709688186646,
        1.0
      ],
      "type": "VEC4"
    },
    {
      "bufferView": 1,
      "componentType": 5126,
      "count": 5159,
      "max": [
        0.9981449842453003,
        0.9985095262527466
      ],
      "min": [
        0.0014880001544952393,
        0.0014871458988636732
      ],
      "type": "VEC2"
    },
    {
      "bufferView": 0,
      "componentType": 5125,
      "count": 27498,
      "type": "SCALAR"
    }
  ],
  "asset": {
    "extras": {
      "author": "re1monsen (https://sketchfab.com/re1monsen)",
      "license": "CC-BY-4.0 (http://creativecommons.org/licenses/by/4.0/)",
      "source": "https://sketchfab.com/3d-models/hand-sculpture-2f36b2523f654144bff4f39ba9e0a81c",
      "title": "Hand Sculpture"
    },
    "generator": "Sketchfab-14.1.2",
    "version": "2.0"
  },
  "bufferViews": [
    {
      "buffer": 0,
      "byteLength": 109992,
      "name": "floatBufferViews",
      "target": 34963
    },
    {
      "buffer": 0,
      "byteLength": 41272,
      "byteOffset": 109992,
      "byteStride": 8,
      "name": "floatBufferViews",
      "target": 34962
    },
    {
      "buffer": 0,
      "byteLength": 123816,
      "byteOffset": 151264,
      "byteStride": 12,
      "name": "floatBufferViews",
      "target": 34962
    },
    {
      "buffer": 0,
      "byteLength": 82544,
      "byteOffset": 275080,
      "byteStride": 16,
      "name": "floatBufferViews",
      "target": 34962
    }
  ],
  "buffers": [
    {
      "byteLength": 357624,
      "uri": "scene.bin"
    }
  ],
  "extensionsUsed": [
    "KHR_materials_clearcoat"
  ],
  "images": [
    {
      "uri": "textures/hand.001_baseColor.jpeg"
    },
    {
      "uri": "textures/hand.001_metallicRoughness.png"
    },
    {
      "uri": "textures/hand.001_normal.png"
    },
    {
      "uri": "textures/hand.001_clearcoat_normal.png"
    }
  ],
  "materials": [
    {
      "doubleSided": true,
      "extensions": {
        "KHR_materials_clearcoat": {
          "clearcoatFactor": 1.0,
          "clearcoatNormalTexture": {
            "index": 3
          },
          "clearcoatRoughnessFactor": 0.22
        }
      },
      "name": "hand.001",
      "normalTexture": {
        "index": 2
      },
      "occlusionTexture": {
        "index": 1
      },
      "pbrMetallicRoughness": {
        "baseColorTexture": {
          "index": 0
        },
        "metallicFactor": 0.0,
        "metallicRoughnessTexture": {
          "index": 1
        }
      }
    }
  ],
  "meshes": [
    {
      "name": "hand_low_hand.001_0",
      "primitives": [
        {
          "attributes": {
            "NORMAL": 1,
            "POSITION": 0,
            "TANGENT": 2,
            "TEXCOORD_0": 3
          },
          "indices": 4,
          "material": 0,
          "mode": 4
        }
      ]
    }
  ],
  "nodes": [
    {
      "children": [
        1
      ],
      "matrix": [
        7.448047393735258e-17,
        7.448047393735258e-17,
        -0.33543023467063904,
        0.0,
        -0.33543023467063904,
        1.6537987410048546e-32,
        -7.448047393735258e-17,
        0.0,
        0.0,
        0.33543023467063904,
        7.448047393735258e-17,
        0.0,
        0.0,
        0.0,
        0.0,
        1.0
      ],
      "name": "Sketchfab_model"
    },
    {
      "children": [
        2
      ],
      "matrix": [
        0.009999999776482582,
        0.0,
        0.0,
        0.0,
        0.0,
        0.0,
        0.009999999776482582,
        0.0,
        0.0,
        -0.009999999776482582,
        0.0,
        0.0,
        0.0,
        0.0,
        0.0,
        1.0
      ],
      "name": "a5fdb17691a949688d0b84857760727a.fbx"
    },
    {
      "children": [
        3
      ],
      "name": "RootNode"
    },
    {
      "children": [
        4
      ],
      "matrix": [
        100.0,
        0.0,
        0.0,
        0.0,
        0.0,
        -1.629206793918314e-05,
        -99.99999999999868,
        0.0,
        0.0,
        99.99999999999868,
        -1.629206793918314e-05,
        0.0,
        0.0,
        0.0,
        0.0,
        1.0
      ],
      "name": "hand_low"
    },
    {
      "mesh": 0,
      "name": "hand_low_hand.001_0"
    }
  ],
  "samplers": [
    {
      "magFilter": 9729,
      "minFilter": 9987,
      "wrapS": 10497,
      "wrapT": 10497
    }
  ],
  "scene": 0,
  "scenes": [
    {
      "name": "Sketchfab_Scene",
      "nodes": [
        0
      ]
    }
  ],
  "textures": [
    {
      "sampler": 0,
      "source": 0
    },
    {
      "sampler": 0,
      "source": 1
    },
    {
      "sampler": 0,
      "source": 2
    },
    {
      "sampler": 0,
      "source": 3
    }
  ]
}
